<?xml version="1.0" encoding="utf-8"?>
<!-- Generator: Adobe Illustrator 21.0.2, SVG Export Plug-In . SVG Version: 6.00 Build 0)  -->
<svg version="1.1" id="Layer_1" xmlns="http://www.w3.org/2000/svg" xmlns:xlink="http://www.w3.org/1999/xlink" x="0px" y="0px"
	 viewBox="0 0 512 512" style="enable-background:new 0 0 512 512;" xml:space="preserve">
<g>
	<path d="M98.8,148.7c9.1,5.8,136.2,89.1,141,92.1s9.6,4.4,17.1,4.4c7.5,0,12.3-1.4,17.1-4.4s131.8-86.3,141-92.1
		c3.4-2.1,9.1-5.9,10.4-10.2c2.2-7.6-0.2-10.5-9.4-10.5h-159h-159c-9.2,0-11.6,3-9.4,10.5C89.7,142.9,95.4,146.6,98.8,148.7z"/>
	<path d="M422.1,153.2c-6.8,4.2-68,56.6-108.5,88.1l68.4,92.5c1.7,2,2.4,4.4,1.5,5.6c-1,1.1-3.2,0.5-4.9-1.4l-82-83.2
		c-12.4,9.6-21.1,16.2-22.6,17.2c-6.4,3.9-10.9,4.4-17.1,4.4c-6.2,0-10.6-0.5-17.1-4.4c-1.6-1-10.2-7.6-22.6-17.2l-82,83.2
		c-1.7,2-3.9,2.6-4.9,1.4c-1-1.1-0.2-3.6,1.4-5.6l68.3-92.5c-40.5-31.5-102.4-83.9-109.2-88.1c-7.3-4.5-7.7,0.8-7.7,4.9
		c0,4.1,0,205,0,205c0,9.3,11.4,20.9,19.5,20.9h154.3h154.3c8.2,0,17.9-11.7,17.9-20.9c0,0,0-201,0-205
		C429,153.9,429.5,148.7,422.1,153.2z"/>
</g>
</svg>
